Coordinates
version=1
nRows=15
nColumns=42
inDegrees=yes

Units are S.I. units (second, meters, Newtons, ...)
If the header above contains a line with 'inDegrees', this indicates whether rotational values are in degrees (yes) or radians (no).

endheader
time	pelvis_tilt	pelvis_list	pelvis_rotation	pelvis_tx	pelvis_ty	pelvis_tz	hip_flexion_r	hip_adduction_r	hip_rotation_r	knee_angle_r	knee_adduction_r	knee_angle_r_beta	ankle_angle_r	subtalar_angle_r	mtp_angle_r	hip_flexion_l	hip_adduction_l	hip_rotation_l	knee_angle_l	knee_adduction_l	knee_angle_l_beta	ankle_angle_l	subtalar_angle_l	mtp_angle_l	lumbar_extension	lumbar_bending	lumbar_rotation	arm_flex_r	arm_add_r	arm_rot_r	elbow_flex_r	pro_sup_r	wrist_flex_r	wrist_dev_r	arm_flex_l	arm_add_l	arm_rot_l	elbow_flex_l	pro_sup_l	wrist_flex_l	wrist_dev_l
      0.60000000	     14.76035745	      0.68597485	      6.97933730	     -0.47362901	      0.95682479	     -0.14162016	      9.69348977	      0.70777782	    -11.60719179	     28.91308512	      0.41972836	      0.50462853	      1.74341506	     -4.77710305	     -8.24666804	    -25.08107578	     -4.18756386	     -2.95649980	     42.13755827	      0.12885423	      0.73543913	     -6.47142581	     12.49377043	     -8.24666804	    -31.09230177	      7.01861906	      3.83980141	     -8.95508415	    -20.08697763	    -13.89744577	     63.83148027	     90.00000001	      0.00000000	      0.00000000	      4.85321539	    -21.07496405	      7.09564563	     71.97609392	     90.00000001	      0.00000000	      0.00000000
      0.61000000	     14.69536530	      0.29272781	      6.87155003	     -0.45910898	      0.95842098	     -0.14026149	      8.93061010	      1.39292305	    -11.97813454	     29.02685401	      0.14660654	      0.50661417	      2.96888333	     -3.98549965	     -8.21697480	    -23.18651858	     -4.57516907	     -2.39213886	     45.99330586	      0.01802794	      0.80273462	     -7.55444784	     10.66977010	     -8.21697480	    -31.06682102	      7.39137953	      4.34038347	     -8.64974544	    -20.21806277	    -13.74831757	     63.84328208	     90.00000001	      0.00000000	      0.00000000	      4.16361493	    -20.82216629	      6.78986057	     71.58087463	     90.00000001	      0.00000000	      0.00000000
      0.62000000	     14.78003951	      0.02804122	      6.82400160	     -0.44481813	      0.96043776	     -0.13911756	      7.78630712	      1.88658493	    -12.18212700	     28.78050468	      0.14687744	      0.50231457	      4.22889057	     -3.36657754	     -8.20235966	    -21.41592893	     -4.77510892	     -1.95570938	     49.55610626	     -0.38443371	      0.86491722	     -8.09423058	      9.47515591	     -8.20235966	    -31.23032762	      7.67025458	      4.72719422	     -8.33387279	    -20.32040779	    -13.61328810	     64.02967533	     90.00000001	      0.00000000	      0.00000000	      3.54760585	    -20.64035893	      6.63917860	     71.12694007	     90.00000001	      0.00000000	      0.00000000
      0.63000000	     14.64961022	     -0.30640413	      6.69459592	     -0.43081605	      0.96221524	     -0.13771536	      6.90192818	      2.50365098	    -12.59098529	     28.45985164	     -0.12983607	      0.49671812	      5.27148550	     -2.40191975	     -8.18611704	    -19.33485321	     -5.02431576	     -1.63883948	     52.99918990	     -0.67068003	      0.92501036	     -7.99014578	      7.97860372	     -8.18611704	    -31.18600118	      7.92651571	      5.19985931	     -7.99452399	    -20.48371611	    -13.38814411	     64.14404595	     90.00000001	      0.00000000	      0.00000000	      2.98250169	    -20.42006197	      6.44884435	     70.55934759	     90.00000001	      0.00000000	      0.00000000
      0.64000000	     14.38812565	     -0.54464940	      6.51622704	     -0.41711482	      0.96389122	     -0.13611946	      6.26297621	      3.01925707	    -13.41641701	     28.29604337	     -0.74216648	      0.49385912	      6.26211258	     -0.68894420	     -8.15702417	    -17.10643519	     -5.19029822	     -1.03082609	     56.13995061	     -0.56306479	      0.97982698	     -7.54599152	      6.24979198	     -8.15702417	    -31.03327697	      8.01118735	      5.65202832	     -7.61109115	    -20.62477837	    -13.08710348	     64.21575193	     90.00000001	      0.00000000	      0.00000000	      2.48101589	    -20.23336559	      6.23392366	     69.92007535	     90.00000001	      0.00000000	      0.00000000
      0.65000000	     14.68287922	     -0.33147593	      6.16631878	     -0.40348410	      0.96678587	     -0.13458053	      4.75241277	      3.01320557	    -13.37333448	     27.82390371	     -0.73317398	      0.48561873	      6.82382529	     -0.28954041	     -8.14864289	    -15.69044680	     -4.76811771	     -1.01814777	     58.36270519	     -0.99855757	      1.01862137	     -7.05522880	      5.81427698	     -8.14864289	    -31.55409108	      7.60535168	      6.06738917	     -7.19312424	    -20.67993744	    -12.94332808	     64.44645980	     90.00000001	      0.00000000	      0.00000000	      2.11293680	    -20.17738976	      6.20477415	     69.35864339	     90.00000001	      0.00000000	      0.00000000
      0.66000000	     14.51832693	     -0.75338285	      6.14820459	     -0.38993948	      0.96883765	     -0.13323747	      3.63456931	      3.68497378	    -13.41108927	     26.87259738	     -0.69983766	      0.46901530	      7.69478373	      0.82370418	     -8.12643965	    -13.50281410	     -5.15716358	     -1.17346412	     60.73079388	     -1.51692504	      1.05995231	     -5.80424098	      4.58109925	     -8.12643965	    -31.46317469	      7.95678229	      6.42153969	     -6.88158069	    -20.90141075	    -12.54004820	     64.78068992	     90.00000001	      0.00000000	      0.00000000	      1.64935620	    -20.00004390	      6.13408172	     68.47482203	     90.00000001	      0.00000000	      0.00000000
      0.67000000	     14.62976989	     -0.67878663	      5.93936168	     -0.37660890	      0.97155716	     -0.13189896	      2.19001906	      3.76950272	    -13.14757987	     26.04147681	     -0.47911325	      0.45450951	      8.23240778	      1.29378490	     -8.11438126	    -11.80256698	     -4.90752568	     -1.39329293	     62.29091353	     -2.06186397	      1.08718154	     -4.68929212	      3.98511635	     -8.11438126	    -31.74775831	      7.73469016	      6.70283901	     -6.48358845	    -21.00515052	    -12.27817748	     65.11305574	     90.00000001	      0.00000000	      0.00000000	      1.30030230	    -19.91481281	      6.14799133	     67.67266763	     90.00000001	      0.00000000	      0.00000000
      0.68000000	     14.72130087	     -0.75329634	      5.65126443	     -0.36338237	      0.97418346	     -0.13024970	      0.75258920	      4.09784881	    -12.68696499	     25.06357123	     -0.35498972	      0.43744184	      8.59760766	      1.69858320	     -8.09932098	    -10.09335011	     -4.88044628	     -1.77091578	     63.46808627	     -2.47583634	      1.10772708	     -3.43885901	      3.51219768	     -8.09932098	    -32.01207352	      7.59156232	      7.11282128	     -6.11173535	    -21.18479314	    -11.90598163	     65.50520091	     90.00000001	      0.00000000	      0.00000000	      0.98530803	    -19.80521525	      6.13663055	     66.79743060	     90.00000001	      0.00000000	      0.00000000
      0.69000000	     14.72168038	     -0.57565959	      5.36060089	     -0.35043000	      0.97671129	     -0.12869204	     -0.56697670	      4.13712302	    -12.33723919	     24.11865166	     -0.33685252	      0.42094988	      8.88624732	      1.97206889	     -8.09033358	     -8.33123802	     -4.49710727	     -2.05838569	     64.15193580	     -2.88248891	      1.11966250	     -2.34449888	      3.18364849	     -8.09033358	    -32.21897974	      7.17550495	      7.32678029	     -5.70453967	    -21.23913525	    -11.62418245	     65.96051831	     90.00000001	      0.00000000	      0.00000000	      0.65700852	    -19.80406202	      6.15643491	     65.97815054	     90.00000001	      0.00000000	      0.00000000
      0.70000000	     14.94698118	     -0.78777310	      4.93442304	     -0.33722110	      0.97946355	     -0.12676908	     -2.34871927	      4.65839429	    -11.31759889	     22.62304681	     -0.06557342	      0.39484665	      8.71826740	      1.64865303	     -8.05548004	     -6.89999016	     -4.64910493	     -3.00987661	     64.37772849	     -3.52296392	      1.12360333	     -0.83393920	      3.63854553	     -8.05548004	    -32.61429914	      7.09697059	      7.86016431	     -5.38345776	    -21.48972910	    -11.15685144	     66.50299082	     90.00000001	      0.00000000	      0.00000000	      0.34436953	    -19.69390284	      6.15492066	     65.03585816	     90.00000001	      0.00000000	      0.00000000
      0.71000000	     14.87789955	     -0.68767992	      4.55731424	     -0.32447198	      0.98164159	     -0.12513467	     -3.62390095	      4.75459590	    -10.90533789	     21.54798526	     -0.05703223	      0.37608329	      8.97883695	      2.01984395	     -8.04254988	     -5.14461002	     -4.35356304	     -3.41474110	     64.30844968	     -3.79771087	      1.12239418	      0.38363518	      3.36301021	     -8.04254988	    -32.73733642	      6.71703422	      8.14015844	     -5.00687231	    -21.64577935	    -10.75882422	     66.99974167	     90.00000001	      0.00000000	      0.00000000	      0.08360971	    -19.62793878	      6.15880437	     64.03957008	     90.00000001	      0.00000000	      0.00000000
      0.72000000	     14.94481254	     -0.66783346	      4.12029235	     -0.31162456	      0.98387522	     -0.12334150	     -5.14161906	      5.00293118	    -10.43842717	     20.21523816	     -0.16973821	      0.35282246	      9.06022756	      2.47797979	     -8.02486803	     -3.64234768	     -4.17964415	     -3.95194772	     63.78762568	     -4.05702191	      1.11330409	      1.55537692	      3.43424472	     -8.02486803	    -32.98737350	      6.38525383	      8.48115578	     -4.66655908	    -21.84034084	    -10.29030888	     67.59998554	     90.00000001	      0.00000000	      0.00000000	     -0.21244808	    -19.56468391	      6.13946639	     63.09528508	     90.00000001	      0.00000000	      0.00000000
      0.73000000	     14.88148573	     -0.58837565	      3.73068619	     -0.29895939	      0.98570872	     -0.12174051	     -6.48882259	      5.12729942	    -10.14865152	     18.94840991	     -0.27103574	      0.33071214	      9.18718774	      2.99727816	     -8.01096891	     -2.01984020	     -3.90203535	     -4.29497759	     62.99553846	     -4.18316350	      1.09947956	      2.65515232	      3.36488033	     -8.01096891	    -33.10293104	      6.01999530	      8.70547347	     -4.31157120	    -22.01548162	     -9.85988054	     68.19335098	     90.00000001	      0.00000000	      0.00000000	     -0.50720374	    -19.51613937	      6.12820887	     62.14038723	     90.00000001	      0.00000000	      0.00000000
      0.74000000	     14.77839812	     -0.52999081	      3.32578255	     -0.28634757	      0.98724912	     -0.12013344	     -7.79363836	      5.26276975	     -9.93673020	     17.65424360	     -0.40862422	      0.30812468	      9.32656383	      3.61095853	     -8.00050628	     -0.41545623	     -3.63780150	     -4.44550447	     61.92378907	     -4.10750330	      1.08077400	      3.64359864	      3.18574269	     -8.00050628	    -33.16055366	      5.66978634	      8.91322191	     -3.96214263	    -22.18229992	     -9.40248674	     68.82013094	     90.00000001	      0.00000000	      0.00000000	     -0.82198932	    -19.46222053	      6.10833572	     61.18965820	     90.00000001	      0.00000000	      0.00000000
